<svg xmlns="http://www.w3.org/2000/svg" width="645.252" height="10" viewBox="0 0 645.252 10">
  <g id="Group_11" data-name="Group 11" transform="translate(3190.199 1108) rotate(180)">
    <line id="Line_3" data-name="Line 3" x2="620.74" transform="translate(2553.959 1102.5)" fill="none" stroke="#707070" stroke-width="2"/>
    <g id="Polygon_1" data-name="Polygon 1" transform="translate(2544.947 1108) rotate(-90)" fill="#838586">
      <path d="M 9.342179298400879 17.5 L 0.6578211188316345 17.5 L 5 1.868155956268311 L 9.342179298400879 17.5 Z" stroke="none"/>
      <path d="M 5 3.736311912536621 L 1.315642356872559 17 L 8.684357643127441 17 L 5 3.736311912536621 M 5 0 L 10 18 L 0 18 L 5 0 Z" stroke="none" fill="#757679"/>
    </g>
    <g id="Polygon_2" data-name="Polygon 2" transform="translate(3190.199 1098) rotate(90)" fill="#838586">
      <path d="M 9.319903373718262 15.5 L 0.6800962686538696 15.5 L 5 1.676308035850525 L 9.319903373718262 15.5 Z" stroke="none"/>
      <path d="M 5 3.352605819702148 L 1.360189437866211 15 L 8.639810562133789 15 L 5 3.352605819702148 M 5 0 L 10 16 L 0 16 L 5 0 Z" stroke="none" fill="#757679"/>
    </g>
  </g>
</svg>
